<?xml version="1.0" encoding="UTF-8"?>
<svg version="1.1" xmlns="http://www.w3.org/2000/svg" width="3000" height="2000">
<path d="M0 0 C4.30548259 3.35745092 8.16282428 7.12461627 12 11 C12.81339844 11.79148437 13.62679688 12.58296875 14.46484375 13.3984375 C27.75851192 27.07841739 33.66976607 44.57541556 33.47094727 63.44482422 C33.08943007 74.53817026 29.85874722 83.005236 22 91 C11.43063293 100.39706051 -0.85391361 102.92294121 -14.625 102.3828125 C-28.01349564 101.45725998 -39.67064954 95.31650243 -48.8828125 85.7109375 C-53.04988697 80.37523697 -58 72.84662214 -58 66 C-56.68 66 -55.36 66 -54 66 C-52.54296875 67.94140625 -52.54296875 67.94140625 -51.1875 70.5625 C-45.14483554 81.15581301 -36.47619665 86.66792272 -25.078125 90.67578125 C-12.7267747 92.60277763 -0.91192321 91.39808019 9.4375 84.0625 C15.98423677 78.71822509 19.71371099 72.42271937 21 64 C21.11456355 46.93003141 14.53026045 31.90204155 2.8203125 19.6328125 C-15.99640969 2.06706353 -40.22929697 -4.64183442 -65.49609375 -4.2734375 C-81.05373508 -3.72774492 -96.36308942 1.45049947 -108 12 C-118.22219683 24.24392021 -120.18371377 38.58338742 -119 54 C-113.90643802 89.53702731 -85.96765877 116.98001992 -58.59765625 137.578125 C-53.90145148 141.08489359 -49.18034244 144.55659354 -44.4375 148 C-43.71240234 148.52754883 -42.98730469 149.05509766 -42.24023438 149.59863281 C-40.17409222 151.08682645 -38.09121758 152.54731078 -36 154 C-35.28602051 154.51304687 -34.57204102 155.02609375 -33.83642578 155.5546875 C-33.13888184 156.03164063 -32.44133789 156.50859375 -31.72265625 157 C-31.10269775 157.433125 -30.48273926 157.86625 -29.84399414 158.3125 C-27.9682936 159.23405444 -27.9682936 159.23405444 -25.92944336 158.28857422 C-23.00273381 156.33397812 -20.81540194 153.74185106 -18.5 151.125 C-17.42623066 149.94111738 -16.35066391 148.75886287 -15.2734375 147.578125 C-14.7278418 146.97935547 -14.18224609 146.38058594 -13.62011719 145.76367188 C7.81505127 122.42918469 35.73361435 101.72937733 68.4375 99.796875 C88.74842559 99.52962598 107.75564548 105.14993557 122.8125 119.25 C132.29024603 129.23639072 136.5241121 141.28632424 136.421875 154.8918457 C135.90990629 169.19160341 129.28791183 182.18344668 119 192 C100.68865856 207.23788307 79.91874057 209.50636273 57 208 C50.50056229 207.29494438 44.26848704 205.82408029 38 204 C37.16694336 203.75862305 36.33388672 203.51724609 35.47558594 203.26855469 C16.94398865 197.75278537 -0.34485315 189.78733787 -17.19921875 180.36621094 C-18.44638672 179.68606934 -18.44638672 179.68606934 -19.71875 178.9921875 C-20.45029297 178.58339355 -21.18183594 178.17459961 -21.93554688 177.75341797 C-24.44155788 176.83885435 -25.54848659 177.00981217 -28 178 C-30.3675916 180.14782458 -30.3675916 180.14782458 -32.6875 182.875 C-33.12392822 183.36677734 -33.56035645 183.85855469 -34.01000977 184.36523438 C-36.91616717 187.66732747 -39.68708105 191.06692311 -42.4375 194.5 C-46.5075244 199.55319192 -50.93549979 204.03826609 -55.56640625 208.56640625 C-57.40943883 210.40943883 -59.08000632 212.20951138 -60.6875 214.25 C-63.13134902 217.15619883 -65.71250753 219.52127261 -68.60546875 221.96875 C-70.34062816 223.44066336 -72.04833153 224.9451434 -73.73828125 226.46875 C-91.8323992 242.61567769 -112.58511263 253.10670541 -136 259 C-136.96679688 259.2475 -137.93359375 259.495 -138.9296875 259.75 C-164.27234255 265.03890192 -190.8804823 259.71059607 -212.47436523 245.81420898 C-231.32310023 233.2460369 -243.34175436 214.38406559 -250 193 C-250.51046875 191.39511719 -250.51046875 191.39511719 -251.03125 189.7578125 C-256.07314575 170.66396657 -254.62350649 148.70798544 -245.75 131.0625 C-239.16880643 119.78244577 -229.95236311 110.68381511 -217.28515625 106.49609375 C-203.12033775 103.4209964 -191.26375564 105.41137772 -179 113 C-170.56823332 119.33797227 -164.8168247 129.64409922 -163 140 C-162.24767926 150.49145462 -163.13221459 159.64728801 -170 168 C-176.01590234 173.58715206 -181.19156663 175.45564905 -189.3125 176.375 C-194.48585515 175.84889609 -199.40375433 174.46962454 -204 172 C-205.32421875 169.859375 -205.32421875 169.859375 -206 168 C-205.01 167.67 -204.02 167.34 -203 167 C-202.154375 167.45375 -201.30875 167.9075 -200.4375 168.375 C-194.36801929 171.24420906 -188.53997858 171.76946175 -182.125 169.6875 C-180.73546242 169.1619369 -179.3589794 168.60017184 -178 168 C-177.29617188 167.71769531 -176.59234375 167.43539063 -175.8671875 167.14453125 C-173.50938595 165.69926796 -173.02150919 164.54925303 -172 162 C-171.64679688 161.16984375 -171.29359375 160.3396875 -170.9296875 159.484375 C-167.20761259 149.83455117 -167.10576412 142.69166976 -171 133 C-175.97407913 122.78052833 -182.06620728 117.02044306 -192.6875 112.91796875 C-202.53986258 110.18765601 -211.91093142 111.56185949 -221 116 C-224.32808239 117.88413915 -224.32808239 117.88413915 -227 120 C-228.2065625 120.804375 -228.2065625 120.804375 -229.4375 121.625 C-239.92958772 131.34937398 -245.70635281 145.93678295 -246.3359375 160.09375 C-246.72572381 183.26367044 -241.01805136 203.29991949 -227 222 C-226.18789062 223.08861328 -226.18789062 223.08861328 -225.359375 224.19921875 C-212.67003673 239.87609539 -192.4071901 248.52247345 -173 252 C-138.49308762 254.45775729 -108.48354202 242.69579405 -82.33984375 220.59667969 C-78.78667168 217.50880396 -75.37014737 214.28485486 -72 211 C-71.45182617 210.46697266 -70.90365234 209.93394531 -70.33886719 209.38476562 C-63.95266041 203.14707529 -57.76076545 196.82447525 -52 190 C-51.01943878 188.87004293 -50.03753755 187.74124803 -49.0546875 186.61328125 C-47.97378245 185.36734006 -46.89305464 184.12124509 -45.8125 182.875 C-45.30066162 182.28855713 -44.78882324 181.70211426 -44.26147461 181.09790039 C-41.20419317 177.55133385 -38.51560861 173.95052616 -36 170 C-36.86238281 169.44054688 -37.72476562 168.88109375 -38.61328125 168.3046875 C-54.53779043 157.88338727 -69.8334649 146.72337456 -84 134 C-84.56444824 133.49726562 -85.12889648 132.99453125 -85.71044922 132.4765625 C-111.11896588 109.78241557 -130.75791418 81.92210023 -133.28125 47.12109375 C-133.69200638 30.70795344 -130.17596148 14.61263016 -118.98461914 2.16088867 C-88.99907702 -28.86016798 -33.03395766 -23.17814725 0 0 Z M-18 165 C0.69738394 180.68473504 29.24483766 190.19172618 53 195 C54.38638672 195.28617188 54.38638672 195.28617188 55.80078125 195.578125 C73.91451269 197.96674893 92.85987961 196.27251063 107.76171875 184.890625 C116.80732927 177.04839167 124.17093598 168.40061809 125.3828125 156.12109375 C125.71643465 148.41877374 125.28661107 141.62234961 121 135 C120.55269531 134.30519531 120.10539062 133.61039063 119.64453125 132.89453125 C111.62949088 121.44140386 98.90364342 114.32923264 85.3125 111.4375 C41.52728633 105.65454725 10.45843661 136.23264583 -18 165 Z " fill="#101717" transform="translate(1370,857)"/>
<path d="M0 0 C11.67286681 11.13025712 16.45349292 25.00190665 16.90820312 40.78857422 C17.21519787 75.09523734 1.29923212 101.49429249 -22.04223633 125.51025391 C-29.58018375 133.15154733 -37.30937204 140.16629147 -45.94189453 146.53955078 C-48.60952237 148.53203328 -51.2002869 150.6231668 -53.8125 152.6875 C-59.15719448 156.79016412 -64.65625135 160.61978328 -70.25 164.375 C-71.04116211 164.90859131 -71.83232422 165.44218262 -72.64746094 165.99194336 C-73.75589355 166.72682983 -73.75589355 166.72682983 -74.88671875 167.4765625 C-75.54760498 167.91564941 -76.20849121 168.35473633 -76.8894043 168.80712891 C-78.5625 169.75 -78.5625 169.75 -80.5625 169.75 C-77.5597036 174.4821177 -74.19754454 178.66950884 -70.5 182.875 C-69.92926758 183.52879639 -69.35853516 184.18259277 -68.77050781 184.85620117 C-64.29151827 189.9674967 -59.72772147 194.99505717 -55.109375 199.98046875 C-52.71982455 202.57892161 -50.39019753 205.22125973 -48.0625 207.875 C-30.4492438 227.34881143 -7.0356114 242.9089679 18.4375 249.75 C19.57703125 250.06710937 20.7165625 250.38421875 21.890625 250.7109375 C44.34272293 256.10141916 69.23002509 253.54991124 89.15625 241.55859375 C109.26120127 228.96399683 122.31398145 210.14819099 128.3125 187.25 C132.63204946 167.45427332 131.22812396 148.26643034 120.4375 130.75 C114.03123781 121.95476063 105.44692863 114.58490477 94.4375 112.75 C82.65293681 111.81656925 73.41142789 113.12433417 64.125 120.75 C56.68451386 127.89428844 52.38274656 137.092269 52.125 147.375 C52.1986259 154.07495658 53.44886031 160.07167422 57.7578125 165.375 C62.30695526 169.5512622 67.81149226 171.40959159 73.8125 172.1875 C78.04439577 171.67675396 81.35233232 170.30325279 85.203125 168.52734375 C87.4375 167.75 87.4375 167.75 90.4375 168.75 C89.4375 171.75 89.4375 171.75 87.73046875 172.8828125 C87.03566406 173.21023438 86.34085938 173.53765625 85.625 173.875 C84.59439453 174.37386719 84.59439453 174.37386719 83.54296875 174.8828125 C75.74041066 178.09648207 68.72959055 177.11723336 61.0546875 174.06640625 C54.52913963 170.78415307 50.50219872 165.66606329 48.1015625 158.80859375 C45.63632864 147.45401662 46.60069975 135.91385078 52.4375 125.75 C60.25294191 115.31998891 69.41782379 108.00457685 82.44921875 106.00390625 C93.84969134 105.03523864 104.74003532 107.03637539 114.0625 113.875 C128.59067924 126.172066 136.01692757 140.86886435 137.61328125 159.83886719 C139.31505083 186.64173809 130.11830069 212.60983982 112.4375 232.75 C111.77234375 233.51054688 111.1071875 234.27109375 110.421875 235.0546875 C95.85296054 250.64882187 73.26376266 260.79441886 51.98925781 261.87426758 C39.51322138 262.23809565 27.54977381 262.0394196 15.4375 258.75 C14.73882813 258.56195801 14.04015625 258.37391602 13.3203125 258.18017578 C-19.52222601 248.99799809 -47.17993582 226.33928629 -68.93359375 200.66015625 C-70.88487716 198.3719606 -72.91067687 196.1590094 -74.9375 193.9375 C-79.06052724 189.39793405 -82.86788428 184.65593647 -86.6171875 179.8046875 C-87.25914062 179.12664062 -87.90109375 178.44859375 -88.5625 177.75 C-92.09789657 177.75 -93.56568606 178.63707751 -96.65625 180.3125 C-97.67710693 180.8583374 -98.69796387 181.4041748 -99.74975586 181.96655273 C-100.84296143 182.55509033 -101.93616699 183.14362793 -103.0625 183.75 C-119.31828211 192.33956411 -135.87671587 199.63650154 -153.5625 204.75 C-154.65884766 205.06759277 -154.65884766 205.06759277 -155.77734375 205.39160156 C-178.81760498 211.7793014 -203.9161621 211.25806155 -225.23828125 199.85546875 C-237.36569602 192.1742977 -246.70943491 181.22407083 -250.90234375 167.3203125 C-253.51113189 153.2112453 -252.3898789 140.05313012 -244.5625 127.875 C-243.58786414 126.48190635 -242.58670247 125.10706827 -241.5625 123.75 C-240.95148438 122.93144531 -240.34046875 122.11289062 -239.7109375 121.26953125 C-228.5957451 108.23444198 -212.05357113 102.71322275 -195.5625 100.75 C-168.74743708 98.63302135 -143.20803822 110.07634888 -122.99707031 127.06591797 C-120.6169607 129.15183042 -118.30135862 131.30066344 -115.99609375 133.46875 C-113.96392717 135.3737023 -111.89300733 137.16147701 -109.75 138.9375 C-105.5925197 142.53833022 -101.87783883 146.54999814 -98.125 150.5625 C-97.49682373 151.23369873 -96.86864746 151.90489746 -96.22143555 152.59643555 C-91.69317906 157.48864187 -91.69317906 157.48864187 -90.5625 159.75 C-87.54250577 159.13740479 -85.39404384 158.18467676 -82.83203125 156.484375 C-82.12014648 156.01322266 -81.40826172 155.54207031 -80.67480469 155.05664062 C-79.91586914 154.54294922 -79.15693359 154.02925781 -78.375 153.5 C-77.58125977 152.96568359 -76.78751953 152.43136719 -75.96972656 151.88085938 C-41.63520689 128.51978817 -8.07619605 100.57916842 2.4375 58.75 C4.96477834 43.85998428 3.53355429 28.90357077 -5.2578125 16.32421875 C-14.55526122 4.67589421 -30.00900823 -1.45111346 -44.5625 -3.25 C-69.10731976 -5.35009153 -93.70083208 0.26066566 -113.1796875 15.84375 C-126.10307343 26.99949956 -135.16722729 40.67816427 -136.8828125 57.98046875 C-137.18923589 66.69310725 -135.59591293 74.0060095 -130.3125 81.0625 C-121.60034939 89.57664718 -111.60057412 92.26297731 -99.60327148 92.17163086 C-88.47306302 91.77351338 -78.57046893 87.60300148 -70.59375 79.83203125 C-66.89805348 75.78399079 -64.09053003 71.60381766 -61.5625 66.75 C-60.2425 67.08 -58.9225 67.41 -57.5625 67.75 C-62.90886177 82.81416051 -71.02709908 92.42946018 -85.47265625 99.5234375 C-92.36857893 102.26088342 -98.58635656 103.11433641 -105.9375 103.0625 C-106.77531006 103.05686035 -107.61312012 103.0512207 -108.47631836 103.04541016 C-120.54247644 102.80851989 -130.41205439 98.72573363 -139.375 90.5 C-147.71080599 81.57439642 -150.115513 70.19256563 -149.8671875 58.328125 C-148.05403201 37.03517084 -137.2976605 18.73435453 -121.28515625 4.875 C-88.65934455 -20.58904816 -33.22023611 -29.66752375 0 0 Z M-234.71484375 132.28125 C-238.13596365 136.85238695 -241.00110311 141.9956819 -241.5625 147.75 C-241.62566406 148.35972656 -241.68882813 148.96945312 -241.75390625 149.59765625 C-242.39173636 160.93457208 -237.8366294 171.2760142 -230.5625 179.75 C-220.52433128 190.87093748 -205.35742646 196.2698798 -190.7109375 197.0625 C-178.8145044 197.45904777 -167.97377117 196.03681644 -156.5625 192.75 C-155.86688965 192.55696289 -155.1712793 192.36392578 -154.45458984 192.16503906 C-134.88532335 186.62064116 -115.83429821 177.42711162 -98.5625 166.75 C-116.65457106 141.26107655 -145.67486551 118.27484562 -176.83203125 112.2578125 C-199.02545986 109.23671751 -219.83851298 114.78603704 -234.71484375 132.28125 Z " fill="#101717" transform="translate(1764.5625,857.25)"/>
<path d="M0 0 C1.29744141 0.01353516 1.29744141 0.01353516 2.62109375 0.02734375 C3.26175781 0.03894531 3.90242188 0.05054688 4.5625 0.0625 C2.29930871 15.56106317 -11.98563626 30.79409006 -23.95703125 40 C-38.02353558 49.44796692 -53.65648959 54.6770655 -70.546875 55.8515625 C-72.52429344 55.96203015 -72.52429344 55.96203015 -74.4375 57.0625 C-74.1075 58.0525 -73.7775 59.0425 -73.4375 60.0625 C-73.36947033 61.79045352 -73.35254355 63.52085365 -73.375 65.25 C-73.38402344 66.15105469 -73.39304687 67.05210938 -73.40234375 67.98046875 C-73.41394531 68.66753906 -73.42554687 69.35460938 -73.4375 70.0625 C-72.55191406 69.61519531 -71.66632812 69.16789062 -70.75390625 68.70703125 C-41.76571097 54.41707583 -11.04698843 52.26448402 19.5625 62.609375 C23.81101665 64.1165069 27.98064684 65.79014517 32.125 67.5625 C32.76767822 67.83481445 33.41035645 68.10712891 34.07250977 68.38769531 C38.68078774 70.43688907 42.53126668 73.03258976 46.5625 76.0625 C33.57388903 91.51822144 4.90760282 98.2524319 -14.4375 100.0625 C-34.59521918 101.52188238 -54.01872725 97.20653319 -72.4375 89.0625 C-72.57285156 89.6915625 -72.70820313 90.320625 -72.84765625 90.96875 C-74.76912303 98.60859394 -77.86416328 104.00785623 -84.5078125 108.4453125 C-91.12537556 111.83711006 -98.04348665 112.4364206 -105.1484375 110.21484375 C-112.19895346 107.09186746 -116.68168094 102.56255089 -119.48876953 95.36816406 C-121.04476366 89.94660963 -120.80940955 84.45607863 -120.80810547 78.85961914 C-120.8124675 76.76560395 -120.84880919 74.67371987 -120.88671875 72.58007812 C-120.96295663 63.7186122 -120.33903775 56.62699436 -114.4375 49.72265625 C-113.7775 49.19542969 -113.1175 48.66820312 -112.4375 48.125 C-111.7775 47.57972656 -111.1175 47.03445313 -110.4375 46.47265625 C-103.96321589 41.90778015 -97.08551235 42.16182037 -89.4375 43.0625 C-83.75181261 45.29331747 -79.63891657 48.69985526 -75.4375 53.0625 C-75.36273437 52.39347656 -75.28796875 51.72445312 -75.2109375 51.03515625 C-70.85058152 34.27641432 -54.74266569 19.54775748 -40.4375 11.0625 C-28.2368 4.37902831 -14.01842252 -0.19203319 0 0 Z " fill="#101717" transform="translate(2918.4375,966.9375)"/>
<path d="M0 0 C25.50154861 0.41930797 46.76647633 9.07357946 64.6484375 27.3984375 C70.0412404 33.36456164 80 44.63796516 80 53 C80.65226562 52.44570313 81.30453125 51.89140625 81.9765625 51.3203125 C82.85054688 50.59585938 83.72453125 49.87140625 84.625 49.125 C85.91277344 48.04605469 85.91277344 48.04605469 87.2265625 46.9453125 C93.31174633 42.67711314 99.77249886 42.05004389 107 43 C113.53379295 45.15633677 118.26546255 48.22844212 122 54 C125.42031767 60.93262432 125.52616223 67.69275504 125.50097656 75.29882812 C125.50000484 77.36470399 125.54170125 79.42684635 125.5859375 81.4921875 C125.66818927 90.55050445 124.58191932 98.12338781 118.18554688 104.93115234 C112.10574708 110.59001583 106.38309716 111.45458639 98.23046875 111.31640625 C92.34835248 110.74028603 88.73815243 108.42212471 84.25 104.75 C80.22407387 99.82942362 77.69718549 95.46004288 78 89 C76.65421875 89.58007812 76.65421875 89.58007812 75.28125 90.171875 C51.69992183 100.1006872 24.98244229 104.16508432 0 97 C-0.6801416 96.81195801 -1.3602832 96.62391602 -2.06103516 96.43017578 C-11.27249015 93.8334503 -19.82094597 90.3530097 -28.3125 85.9375 C-29.10688477 85.5262085 -29.90126953 85.11491699 -30.71972656 84.69116211 C-35.20076378 82.26883646 -38.60347163 79.80329824 -42 76 C-14.74826764 59.45580501 17.40192628 51.34889071 49.125 59 C59.14638365 61.59940661 68.61690731 65.6784156 78 70 C77.98839844 69.31292969 77.97679687 68.62585938 77.96484375 67.91796875 C77.95582031 67.01691406 77.94679688 66.11585938 77.9375 65.1875 C77.92589844 64.29417969 77.91429687 63.40085937 77.90234375 62.48046875 C78 60 78 60 79 57 C77.8140625 56.84144531 76.628125 56.68289063 75.40625 56.51953125 C49.0519001 52.80549067 26.8786084 43.67072061 10.32861328 21.87109375 C7.94568586 18.51520331 5.84832089 15.01221234 3.8125 11.4375 C3.42562012 10.75872803 3.03874023 10.07995605 2.64013672 9.38061523 C0.75850105 5.91821458 0 4.02256437 0 0 Z " fill="#101717" transform="translate(77,943)"/>
<path d="M0 0 C1.26682269 -0.00500704 2.53364538 -0.01001407 3.83885664 -0.01517284 C5.26067803 -0.01061845 6.68249885 -0.00588204 8.1043191 -0.00098395 C9.60852831 -0.00306809 11.11273652 -0.00602899 12.61694247 -0.00979269 C16.7841519 -0.01763688 20.95126964 -0.01289173 25.11847771 -0.00623678 C29.63928203 -0.00119214 34.1600716 -0.00767171 38.68087387 -0.01272345 C46.6153042 -0.0199706 54.54970736 -0.01971316 62.48413897 -0.01462913 C74.2825695 -0.00708961 86.08097694 -0.01091834 97.8794073 -0.01704574 C118.94673588 -0.02759885 140.01405237 -0.02665585 161.08138211 -0.02088792 C179.51730005 -0.01586495 197.95321354 -0.01453959 216.38913202 -0.0169332 C217.61007581 -0.01708597 218.83101959 -0.01723874 220.08896167 -0.01739614 C225.04465714 -0.01801878 230.00035261 -0.01865557 234.95604808 -0.01931567 C281.48336864 -0.02543934 328.01068147 -0.01987777 374.53800084 -0.00912188 C415.91203264 0.00036996 457.2860506 -0.00047927 498.66008234 -0.01004386 C545.10006906 -0.02074357 591.54004895 -0.02500512 637.98003674 -0.01881933 C642.92691819 -0.01817786 647.87379964 -0.01755218 652.8206811 -0.0169332 C654.03880882 -0.01677505 655.25693655 -0.01661689 656.51197724 -0.01645395 C674.94030967 -0.01417505 693.36863718 -0.01684689 711.79696894 -0.02189231 C732.74215665 -0.02759807 753.68733032 -0.0262085 774.63251626 -0.01533082 C786.36758454 -0.00943806 798.10262246 -0.00910385 809.83768998 -0.01662317 C817.66244109 -0.02108573 825.48716771 -0.01835733 833.31191518 -0.00961363 C837.77939658 -0.004826 842.24681736 -0.00329112 846.714297 -0.0104256 C850.77033857 -0.01683742 854.82626519 -0.01421293 858.88229822 -0.00406428 C860.34831004 -0.00203306 861.81433115 -0.00342586 863.28033567 -0.00847615 C865.25682003 -0.01480724 867.23333405 -0.00781191 869.20981312 0 C870.30840512 0.00013552 871.40699712 0.00027104 872.53887978 0.00041066 C875.10490656 0.25069833 875.10490656 0.25069833 877.10490656 2.25069833 C876.549351 6.80625388 876.549351 6.80625388 875.10490656 8.25069833 C873.18042603 8.34883082 871.2522791 8.37516996 869.32529825 8.37489682 C868.05877699 8.37714412 866.79225572 8.37939141 865.48735502 8.3817068 C864.06068247 8.37914049 862.63401009 8.37648355 861.20733786 8.37374616 C859.70198462 8.37448489 858.19663155 8.3756625 856.69127896 8.37724265 C852.51626391 8.38033242 848.34127294 8.3771195 844.16625967 8.37296452 C839.63874249 8.36954787 835.11122791 8.37189775 830.58371025 8.37354201 C822.63599996 8.37562191 814.68829714 8.37396151 806.74058771 8.3699038 C794.92249897 8.36388676 783.10441496 8.36356632 771.28632496 8.36444579 C751.40967273 8.36576199 731.53302381 8.36240958 711.65637255 8.35642838 C691.96608129 8.35051841 672.27579142 8.34666387 652.58549929 8.34557557 C651.36281017 8.34550683 650.14012105 8.34543809 648.88038074 8.34536727 C642.67137009 8.34502895 636.46235943 8.34472756 630.25334878 8.34444039 C586.23503572 8.34233803 542.21672446 8.33559525 498.19841242 8.32613778 C487.52379084 8.32384695 476.84916927 8.32157082 466.17454767 8.31936288 C465.51252587 8.31922593 464.85050407 8.31908898 464.16842101 8.31894788 C432.73929076 8.31246908 401.31016035 8.3087473 369.88102961 8.30562997 C368.56340382 8.30549844 367.24577803 8.30536692 365.88822419 8.3052314 C352.65650508 8.30391292 339.42478597 8.3026371 326.19306685 8.30139255 C299.23672388 8.29885609 272.28038095 8.29603484 245.32403803 8.29304147 C244.08453409 8.29290418 242.84503015 8.29276689 241.56796548 8.29262544 C158.74694509 8.28341936 75.9259257 8.26757353 -6.89509344 8.25069833 C-7.52009344 5.37569833 -7.52009344 5.37569833 -7.89509344 2.25069833 C-5.1863441 -0.45805101 -3.7918057 0.00046774 0 0 Z " fill="#101717" transform="translate(213.89509344100952,1015.7493016719818)"/>
<path d="M0 0 C1.08047778 0.00015598 2.16095557 0.00031196 3.2741751 0.00047267 C4.51776169 -0.00177462 5.76134828 -0.00402192 7.04261931 -0.00633731 C8.44336305 -0.003771 9.84410662 -0.00111406 11.24485004 0.00162334 C12.72291643 0.0008846 14.20098265 -0.00029302 15.67904839 -0.00187316 C19.77830065 -0.00496286 23.87752839 -0.00175006 27.97677884 0.00240497 C32.4221677 0.00582167 36.86755393 0.00347173 41.31294328 0.00182748 C49.11645552 -0.00025241 56.91996016 0.00140795 64.72347152 0.00546569 C76.32714021 0.01148277 87.93080407 0.01180317 99.53447403 0.0109237 C119.05050364 0.00960751 138.56652988 0.01295989 158.08255851 0.01894111 C177.41559065 0.0248511 196.74862139 0.02870563 216.08165443 0.02979392 C217.88241578 0.02989703 217.88241578 0.02989703 219.71955616 0.03000222 C225.81592609 0.03034054 231.91229603 0.03064193 238.00866597 0.0309291 C281.22835024 0.03303146 324.44803267 0.03977423 367.6677159 0.04923171 C409.66413507 0.05841093 451.66055374 0.0654971 493.65697372 0.06973952 C494.95069461 0.06987105 496.2444155 0.07000258 497.57734006 0.07013809 C510.56900477 0.07145657 523.56066948 0.07273239 536.5523342 0.07397695 C563.01962272 0.0765134 589.4869112 0.07933465 615.95419967 0.08232803 C617.77972384 0.08253396 617.77972384 0.08253396 619.6421273 0.08274406 C700.96047205 0.09195013 782.27881578 0.10779595 863.59715926 0.12467116 C864.22215926 2.99967116 864.22215926 2.99967116 864.59715926 6.12467116 C861.9070008 8.81482962 860.57454913 8.3748961 856.81107032 8.37536949 C854.94738842 8.38288005 854.94738842 8.38288005 853.04605639 8.39054233 C851.65178435 8.38598796 850.2575129 8.38125154 848.86324203 8.37635345 C847.38802506 8.37843761 845.91280912 8.38139852 844.43759548 8.38516218 C840.35088357 8.39300604 836.26426516 8.38826139 832.17755463 8.38160627 C827.74401155 8.37656148 823.3104835 8.38304127 818.87694251 8.38809294 C811.09572249 8.39533998 803.31453018 8.39508273 795.53330886 8.38999862 C783.96269951 8.38245899 772.3921137 8.38628789 760.82150453 8.39241523 C740.1609557 8.40296826 719.50041921 8.40202538 698.8398692 8.39625741 C680.75992078 8.39123441 662.67997689 8.38990909 644.60002792 8.3923027 C643.40265203 8.39245547 642.20527614 8.39260824 640.97161613 8.39276564 C636.11157876 8.39338827 631.2515414 8.39402507 626.39150404 8.39468516 C580.7624182 8.40080881 535.13334024 8.39524729 489.50425562 8.38449137 C448.92909949 8.37499954 408.35395591 8.37584877 367.77879989 8.38541335 C322.23535425 8.3961131 276.69191557 8.4003746 231.14846885 8.39418883 C226.2970761 8.39354735 221.44568336 8.39292167 216.59429061 8.3923027 C215.39967644 8.39214454 214.20506227 8.39198639 212.97424768 8.39182344 C194.90175194 8.38954456 176.82926123 8.39221636 158.7567662 8.3972618 C138.2159841 8.4029676 117.67521631 8.40157791 97.13443601 8.39070031 C85.62598959 8.38480761 74.11757414 8.38447325 62.60912849 8.39199266 C54.9354371 8.3964553 47.26177068 8.39372669 39.588083 8.38498313 C35.20687973 8.3801956 30.82573827 8.3786604 26.4445368 8.38579509 C22.46678183 8.39220718 18.48914407 8.38958204 14.51139781 8.37943377 C13.07372581 8.37740265 11.63604434 8.37879511 10.19837978 8.38384565 C8.26001087 8.39017731 6.32161172 8.38318101 4.38324821 8.37536949 C3.30586957 8.37523397 2.22849094 8.37509846 1.11846447 8.37495883 C-1.40284074 8.12467116 -1.40284074 8.12467116 -3.40284074 6.12467116 C-3.59034074 3.56217116 -3.59034074 3.56217116 -3.40284074 1.12467116 C-2.40284074 0.12467116 -2.40284074 0.12467116 0 0 Z " fill="#101717" transform="translate(1929.4028407372534,1039.8753288351)"/>
<path d="M0 0 C4.26666436 3.82222015 6.63842528 7.55869961 9 12.75 C9.51264404 13.86556274 9.51264404 13.86556274 10.03564453 15.00366211 C21.44567523 40.59411558 22.92641912 66.8810026 13.16113281 93.26660156 C10.14166606 100.91839694 6.67165131 108.20487082 2 115 C-1.24441001 113.9617888 -2.07808785 112.87607111 -3.9296875 109.9375 C-4.59461803 108.63327807 -5.24202802 107.320028 -5.875 106 C-6.21869629 105.29520508 -6.56239258 104.59041016 -6.91650391 103.86425781 C-18.85369083 78.63829527 -21.76150779 52.42874616 -12.68994141 25.82519531 C-9.38937529 16.60858942 -5.20585825 8.28880806 0 0 Z " fill="#101717" transform="translate(1506,1046)"/>
<path d="M0 0 C15.36086896 17.89250438 20.46273532 44.0987392 19 67 C17.56835868 82.51678933 11.78596099 105.18464756 0 116 C-14.92489312 96.31882226 -21.21034331 69.72074595 -18.10180664 45.42749023 C-15.6278442 28.92373013 -9.46734911 13.72660194 0 0 Z " fill="#101717" transform="translate(1508,854)"/>
<path d="M0 0 C24.62006238 -0.70867983 47.15458348 4.28332047 65.69799805 21.59790039 C73.39034133 29.09961895 80.30915077 38.30557825 85 48 C85 48.99 85 49.98 85 51 C62.23291647 52.38137361 39.21263145 45.44437328 21.85107422 30.58911133 C12.24118687 21.96716972 5.13169702 11.82239061 0 0 Z " fill="#101717" transform="translate(2842,1069)"/>
<path d="M0 0 C-3.19565168 11.1764153 -11.98936033 20.84476395 -20 29 C-20.61101562 29.62390625 -21.22203125 30.2478125 -21.8515625 30.890625 C-39.00902928 47.09895532 -62.18227677 51.5680761 -85 51 C-81.41999701 39.24936818 -73.437854 30.57007109 -65 22 C-64.28070313 21.25621094 -63.56140625 20.51242187 -62.8203125 19.74609375 C-45.94881959 3.47942794 -22.53969462 -0.51486612 0 0 Z " fill="#101717" transform="translate(158,1045)"/>
<path d="M0 0 C17.21944456 3.60118191 33.09166686 15.2902305 43.34765625 29.3828125 C51.29452005 41.97004358 57.46836567 55.83666152 57 71 C39.83323573 67.40983536 24.40987471 55.97949306 14.0625 42.0625 C5.96151084 29.48992524 0.69077418 14.98979961 0 0 Z " fill="#101717" transform="translate(1522,1058)"/>
<path d="M0 0 C-2.16749583 22.8072322 -10.26371916 42.80495881 -28 58 C-46.74137931 72 -46.74137931 72 -55 72 C-55.46794555 54.53003288 -48.77606617 36.0387679 -37 23 C-36.27167969 22.19175781 -35.54335937 21.38351562 -34.79296875 20.55078125 C-26.56929081 11.8867804 -12.51624113 0 0 0 Z " fill="#101717" transform="translate(1492,1057)"/>
<path d="M0 0 C16.94732154 7.82845817 32.9113863 19.98208135 39.7578125 37.99365234 C42.9470247 47.06821994 45.15391813 55.68467872 45.0625 65.375 C45.05347656 66.62023437 45.04445313 67.86546875 45.03515625 69.1484375 C45.02355469 70.08945312 45.01195312 71.03046875 45 72 C28.93370146 67.27042395 16.33839229 54.03491772 8 40 C1.37371624 27.27621323 -0.58161817 14.17425022 0 0 Z " fill="#101717" transform="translate(1444,888)"/>
<path d="M0 0 C1.03204596 18.34748377 -3.79406891 36.71755875 -15.87939453 50.92675781 C-23.48071396 59.30526951 -32.5536474 66.5506276 -43 71 C-43.66 71 -44.32 71 -45 71 C-45.97343953 51.93680928 -40.86530444 33.06128829 -27.875 18.625 C-21.72250296 12.13361276 -9.24562 0 0 0 Z " fill="#101717" transform="translate(1574,888)"/>
</svg>
